# Made in Blockbench 4.10.4
mtllib FenceConnectedD.mtl

o cuboid
v 0.5 -1 0.5
v -0.5 -1 0.5
v 1 -1 0.25
v 1 0.5 0.25
v 1 -1 -0.25
v 1 0.5 -0.25
v 0.5 -1 0.25
v -0.5 -1 -0.5
v 0.5 0.5 -0.25
v 0.5 0.5 0.25
v 0.5 0.5 0.5
v -0.5 0.5 0.5
v -0.25 0.5 1
v -0.25 -1 1
v -0.25 -1 0.5
v -0.5 0.5 -0.5
v 0.5 0.5 -0.5
v 0.5 -1 -0.5
v 0.25 -1 1
v 0.25 0.5 1
v 0.5 -1 -0.25
v 0.25 -1 0.5
v 0.25 0.5 0.5
v -0.25 0.5 0.5
v 0.5 1 0.5
v 0.5 1 -0.5
v -0.5 1 -0.5
v -0.5 1 0.5
vt 0.46875 0.96875
vt 0.4375 0.96875
vt 0.4375 0.78125
vt 0.46875 0.78125
vt 0.34375 0.9375
vt 0.28125 0.9375
vt 0.28125 0.75
vt 0.34375 0.75
vt 0.28125 0.78125
vt 0.3125 0.78125
vt 0.3125 0.96875
vt 0.28125 0.96875
vt 0.3125 0.96875
vt 0.34375 0.90625
vt 0.40625 0.90625
vt 0.4375 0.96875
vt 0.34375 0.5
vt 0.28125 0.5
vt 0.28125 0.3125
vt 0.34375 0.3125
vt 0.40625 0.875
vt 0.34375 0.875
vt 0.34375 0.8125
vt 0.40625 0.8125
vt 0.75 0.5
vt 0.75 0.5625
vt 0.5625 0.5625
vt 0.5625 0.5
vt 0.40625 0.15625
vt 0.40625 0.21875
vt 0.34375 0.21875
vt 0.34375 0.15625
vt 0.5 0.4375
vt 0.46875 0.4375
vt 0.46875 0.25
vt 0.5 0.25
vt 0.4375 0.15625
vt 0.40625 0.15625
vt 0.4375 0.125
vt 0.4375 0.0625
vt 0.4375 0.125
vt 0.40625 0.15625
vt 0.3125 0.5625
vt 0.4375 0.5625
vt 0.4375 0.6875
vt 0.3125 0.6875
vt 0.5625 0.6875
vt 0.5625 0.5625
vt 0.75 0.5625
vt 0.75 0.6875
vt 0.4375 0.03125
vt 0.4375 0.0625
vt 0.3125 0.03125
vt 0.3125 0.03125
vt 0.4375 0.0625
vt 0.40625 0.15625
vt 0.34375 0.15625
vt 0.4375 0.28125
vt 0.5 0.28125
vt 0.5 0.34375
vt 0.4375 0.34375
vt 0.375 0.5
vt 0.40625 0.4375
vt 0.46875 0.4375
vt 0.5 0.5
vt 0.28125 0.8125
vt 0.34375 0.8125
vt 0.34375 1
vt 0.28125 1
vt 0.375 0.25
vt 0.40625 0.25
vt 0.40625 0.4375
vt 0.375 0.4375
vt 0.3125 0.03125
vt 0.34375 0.15625
vt 0.3125 0.15625
vt 0.5 0.34375
vt 0.5 0.40625
vt 0.4375 0.40625
vt 0.4375 0.34375
vt 0.4375 0.90625
vt 0.40625 0.90625
vt 0.4375 0.96875
vt 0.5 0.5
vt 0.46875 0.4375
vt 0.5 0.4375
vt 0.3125 0.90625
vt 0.3125 0.96875
vt 0.34375 0.90625
vt 0.5 0.6875
vt 0.5 0.5625
vt 0.5625 0.5625
vt 0.5625 0.6875
vt 0.375 0.4375
vt 0.40625 0.4375
vt 0.375 0.5
vt 0.0625 0.6875
vt 0 0.6875
vt 2.7755575615628914e-17 0.5625
vt 0.06250000000000003 0.5625
vt 0.0625 0.6875
vt 0.06250000000000003 0.5625
vt 0.25 0.5625
vt 0.25 0.6875
vn 1 0 0
vn -1 0 0
vn 1 0 0
vn 1 0 0
vn 0 0 1
vn 0 1 0
vn 0 0 -1
vn 0 -1 0
vn 0 0 1
vn 0 -1 0
vn 0 -1 0
vn 0 1 0
vn 0 0 -1
vn 0 -1 0
vn 0 -1 0
vn 0 -1 0
vn 0 0 1
vn 1 0 0
vn 0 0 1
vn 0 -1 0
vn 0 1 0
vn 1 0 0
vn 0 0 1
vn 1 0 0
vn 0 0 -1
vn 0 0 1
vn -1 0 0
vn -1 0 0
usemtl none
f 17/1/1 9/2/1 21/3/1 18/4/1
f 13/5/2 24/6/2 15/7/2 14/8/2
f 1/9/3 7/10/3 10/11/3 11/12/3
f 25/13/4 10/14/4 9/15/4 26/16/4
f 4/17/5 10/18/5 7/19/5 3/20/5
f 6/21/6 9/22/6 10/23/6 4/24/6
f 5/25/7 21/26/7 9/27/7 6/28/7
f 5/29/8 3/30/8 7/31/8 21/32/8
f 11/33/9 23/34/9 22/35/9 1/36/9
f 1/37/10 22/38/10 7/39/10
f 21/40/11 7/41/11 22/42/11
f 28/43/12 25/44/12 26/45/12 27/46/12
f 16/47/13 17/48/13 18/49/13 8/50/13
f 18/51/14 21/52/14 8/53/14
f 8/54/15 21/55/15 22/56/15 15/57/15
f 15/58/16 22/59/16 19/60/16 14/61/16
f 28/62/17 24/63/17 23/64/17 25/65/17
f 19/66/18 22/67/18 23/68/18 20/69/18
f 2/70/19 15/71/19 24/72/19 12/73/19
f 8/74/20 15/75/20 2/76/20
f 20/77/21 23/78/21 24/79/21 13/80/21
f 11/81/22 10/82/22 25/83/22
f 25/84/23 23/85/23 11/86/23
f 17/87/24 26/88/24 9/89/24
f 27/90/25 26/91/25 17/92/25 16/93/25
f 12/94/26 24/95/26 28/96/26
f 12/97/27 28/98/27 27/99/27 16/100/27
f 12/101/28 16/102/28 8/103/28 2/104/28