# Made in Blockbench 4.10.4
mtllib FenceConnectedB.mtl

o cuboid
v 0.5 -1 0.5
v -0.5 -1 0.5
v -1 0.5 0.25
v -1 -1 0.25
v 1 -1 0.25
v 1 0.5 0.25
v -1 0.5 -0.25
v -1 -1 -0.25
v 1 -1 -0.25
v 1 0.5 -0.25
v 0.5 -1 0.25
v -0.5 -1 0.25
v -0.5 0.5 -0.25
v 0.5 0.5 -0.25
v 0.5 0.5 0.25
v 0.5 0.5 0.5
v -0.5 0.5 0.5
v -0.5 0.5 0.25
v -0.25 0.5 1
v -0.25 -1 1
v -0.25 -1 0.5
v -0.5 -1 -0.25
v -0.5 -1 -0.5
v -0.5 0.5 -0.5
v -0.5 1 -0.5
v 0.5 1 -0.5
v 0.5 0.5 -0.5
v 0.5 -1 -0.5
v 0.25 -1 1
v 0.25 0.5 1
v 0.5 1 0.5
v 0.5 -1 -0.25
v 0.25 -1 0.5
v -0.5 1 0.5
v 0.25 0.5 0.5
v -0.25 0.5 0.5
vt 0.46875 0.96875
vt 0.4375 0.96875
vt 0.4375 0.78125
vt 0.46875 0.78125
vt 0.25 0.5625
vt 0.25 0.59375
vt 0.06250000000000001 0.59375
vt 0.06250000000000003 0.5625
vt 0.34375 0.9375
vt 0.28125 0.9375
vt 0.28125 0.75
vt 0.34375 0.75
vt 0.3125 0.90625
vt 0.3125 0.96875
vt 0.34375 0.90625
vt 0.0625 0.6875
vt 0.06250000000000001 0.65625
vt 0.25 0.65625
vt 0.25 0.6875
vt 0.28125 0.78125
vt 0.3125 0.78125
vt 0.3125 0.96875
vt 0.28125 0.96875
vt 0.4375 0.90625
vt 0.40625 0.90625
vt 0.4375 0.96875
vt 0.3125 0.96875
vt 0.34375 0.90625
vt 0.40625 0.90625
vt 0.4375 0.96875
vt 0.34375 0.5
vt 0.28125 0.5
vt 0.28125 0.3125
vt 0.34375 0.3125
vt 0.28125 0.25
vt 0.34375 0.25
vt 0.34375 0.4375
vt 0.28125 0.4375
vt 0.53125 0.5625
vt 0.53125 0.5
vt 0.71875 0.5
vt 0.71875 0.5625
vt 0.09375 0.5
vt 0.15625 0.5
vt 0.15625 0.5625
vt 0.09375 0.5625
vt 0.40625 0.875
vt 0.34375 0.875
vt 0.34375 0.8125
vt 0.40625 0.8125
vt 0.71875 0.5625
vt 0.71875 0.625
vt 0.53125 0.625
vt 0.53125 0.5625
vt 0.40625 0.1875
vt 0.40625 0.25
vt 0.34375 0.25
vt 0.34375 0.1875
vt 0.40625 0.1875
vt 0.34375 0.1875
vt 0.34375 0.125
vt 0.40625 0.125
vt 2.7755575615628914e-17 0.5625
vt 0.06250000000000003 0.5625
vt 0.06250000000000001 0.59375
vt 0.0625 0.6875
vt 0 0.6875
vt 0.06250000000000001 0.65625
vt 0 0.6875
vt 2.7755575615628914e-17 0.5625
vt 0.06250000000000001 0.59375
vt 0.06250000000000001 0.65625
vt 0.5 0.4375
vt 0.46875 0.4375
vt 0.46875 0.25
vt 0.5 0.25
vt 0.4375 0.09375
vt 0.40625 0.09375
vt 0.4375 0.0625
vt 0.4375 0
vt 0.4375 0.0625
vt 0.40625 0.09375
vt 0.5 0.5
vt 0.46875 0.4375
vt 0.5 0.4375
vt 0.3125 0.5625
vt 0.4375 0.5625
vt 0.4375 0.6875
vt 0.3125 0.6875
vt 0.5 0.75
vt 0.5 0.625
vt 0.5625 0.625
vt 0.5625 0.75
vt 0.5625 0.75
vt 0.5625 0.625
vt 0.75 0.625
vt 0.75 0.75
vt 0.3125 0.09375
vt 0.4375 0.09375
vt 0.4375 0.125
vt 0.3125 0.125
vt 0.3125 0
vt 0.4375 0
vt 0.40625 0.09375
vt 0.34375 0.09375
vt 0.4375 0.28125
vt 0.5 0.28125
vt 0.5 0.34375
vt 0.4375 0.34375
vt 0.375 0.5
vt 0.40625 0.4375
vt 0.46875 0.4375
vt 0.5 0.5
vt 0.28125 0.8125
vt 0.34375 0.8125
vt 0.34375 1
vt 0.28125 1
vt 0.375 0.25
vt 0.40625 0.25
vt 0.40625 0.4375
vt 0.375 0.4375
vt 0.375 0.4375
vt 0.40625 0.4375
vt 0.375 0.5
vt 0.3125 0
vt 0.34375 0.09375
vt 0.3125 0.0625
vt 0.3125 0.0625
vt 0.34375 0.09375
vt 0.3125 0.09375
vt 0.5 0.3515625
vt 0.5 0.4140625
vt 0.4375 0.4140625
vt 0.4375 0.3515625
vn 1 0 0
vn -1 0 0
vn -1 0 0
vn 1 0 0
vn -1 0 0
vn 1 0 0
vn 1 0 0
vn 1 0 0
vn 0 0 1
vn 0 0 1
vn 0 0 -1
vn 0 1 0
vn 0 1 0
vn 0 0 -1
vn 0 -1 0
vn 0 -1 0
vn -1 0 0
vn -1 0 0
vn -1 0 0
vn 0 0 1
vn 0 -1 0
vn 0 -1 0
vn 0 0 1
vn 0 1 0
vn 0 0 -1
vn 0 0 -1
vn 0 -1 0
vn 0 -1 0
vn 0 -1 0
vn 0 0 1
vn 1 0 0
vn 0 0 1
vn 0 0 1
vn 0 -1 0
vn 0 -1 0
vn 0 1 0
usemtl none
f 27/1/1 14/2/1 32/3/1 28/4/1
f 23/5/2 22/6/2 13/7/2 24/8/2
f 19/9/3 36/10/3 21/11/3 20/12/3
f 27/13/4 26/14/4 14/15/4
f 17/16/5 18/17/5 12/18/5 2/19/5
f 1/20/6 11/21/6 15/22/6 16/23/6
f 16/24/7 15/25/7 31/26/7
f 31/27/8 15/28/8 14/29/8 26/30/8
f 6/31/9 15/32/9 11/33/9 5/34/9
f 4/35/10 12/36/10 18/37/10 3/38/10
f 7/39/11 13/40/11 22/41/11 8/42/11
f 3/43/12 18/44/12 13/45/12 7/46/12
f 10/47/13 14/48/13 15/49/13 6/50/13
f 9/51/14 32/52/14 14/53/14 10/54/14
f 9/55/15 5/56/15 11/57/15 32/58/15
f 12/59/16 4/60/16 8/61/16 22/62/16
f 25/63/17 24/64/17 13/65/17
f 17/66/18 34/67/18 18/68/18
f 34/69/19 25/70/19 13/71/19 18/72/19
f 16/73/20 35/74/20 33/75/20 1/76/20
f 1/77/21 33/78/21 11/79/21
f 32/80/22 11/81/22 33/82/22
f 31/83/23 35/84/23 16/85/23
f 34/86/24 31/87/24 26/88/24 25/89/24
f 25/90/25 26/91/25 27/92/25 24/93/25
f 24/94/26 27/95/26 28/96/26 23/97/26
f 23/98/27 28/99/27 32/100/27 22/101/27
f 22/102/28 32/103/28 33/104/28 21/105/28
f 21/106/29 33/107/29 29/108/29 20/109/29
f 34/110/30 36/111/30 35/112/30 31/113/30
f 29/114/31 33/115/31 35/116/31 30/117/31
f 2/118/32 21/119/32 36/120/32 17/121/32
f 17/122/33 36/123/33 34/124/33
f 22/125/34 21/126/34 12/127/34
f 12/128/35 21/129/35 2/130/35
f 30/131/36 35/132/36 36/133/36 19/134/36