# Made in Blockbench 4.10.4
mtllib FenceConnectedA.mtl

o cuboid
v 1 0.5 0.25
v 1 0.5 -0.25
v 1 -1 0.25
v 1 -1 -0.25
v -0.5 1 0.5
v -0.5 1 -0.5
v -0.5 -1 0.5
v -0.5 -1 -0.5
v 0.5 1 0.5
v 0.5 1 -0.5
v 0.5 0.5 0.25
v 0.5 0.5 -0.25
v 0.5 -1 -0.25
v 0.5 -1 0.25
v 0.5 -1 -0.5
v 0.5 -1 0.5
vt 0 0.5625
vt 0.25 0.5625
vt 0.25 0.6875
vt 0 0.6875
vt 0.46875 0.65625
vt 0.40625 0.65625
vt 0.40625 0.59375
vt 0.46875 0.59375
vt 0.46875 0.15625
vt 0.40625 0.15625
vt 0.40625 0.09375
vt 0.46875 0.09375
vt 0.46875 0.46875
vt 0.40625 0.46875
vt 0.40625 0.28125
vt 0.46875 0.28125
vt 0.71875 0.53125
vt 0.71875 0.59375
vt 0.53125 0.59375
vt 0.53125 0.53125
vt 0.25 0.5625
vt 0.375 0.5625
vt 0.375 0.6875
vt 0.25 0.6875
vt 0.5 0.75
vt 0.5 0.625
vt 0.75 0.625
vt 0.75 0.75
vt 0.25 0.25
vt 0.375 0.25
vt 0.375 0.5
vt 0.25 0.5
vt 0.375 0.1875
vt 0.25 0.1875
vt 0.375 0.15625
vt 0.375 0.0625
vt 0.375 0.09375
vt 0.25 0.0625
vt 0.375 0.15625
vt 0.25 0.1875
vt 0.25 0.0625
vt 0.375 0.09375
vt 0.4375 1
vt 0.40625 0.9375
vt 0.40625 0.75
vt 0.4375 0.75
vt 0.3125 0.75
vt 0.34375 0.75
vt 0.34375 0.9375
vt 0.3125 1
vt 0.3125 1
vt 0.34375 0.9375
vt 0.40625 0.9375
vt 0.4375 1
vn -1 0 0
vn 0 1 0
vn 0 -1 0
vn 0 0 1
vn 0 0 -1
vn 0 1 0
vn 0 0 -1
vn 0 0 1
vn 0 -1 0
vn 0 -1 0
vn 0 -1 0
vn 1 0 0
vn 1 0 0
vn 1 0 0
usemtl none
f 7/1/1 5/2/1 6/3/1 8/4/1
f 2/5/2 12/6/2 11/7/2 1/8/2
f 3/9/3 14/10/3 13/11/3 4/12/3
f 1/13/4 11/14/4 14/15/4 3/16/4
f 4/17/5 13/18/5 12/19/5 2/20/5
f 5/21/6 9/22/6 10/23/6 6/24/6
f 6/25/7 10/26/7 15/27/7 8/28/7
f 7/29/8 16/30/8 9/31/8 5/32/8
f 16/33/9 7/34/9 14/35/9
f 15/36/10 13/37/10 8/38/10
f 14/39/11 7/40/11 8/41/11 13/42/11
f 10/43/12 12/44/12 13/45/12 15/46/12
f 16/47/13 14/48/13 11/49/13 9/50/13
f 9/51/14 11/52/14 12/53/14 10/54/14