# Made in Blockbench 4.10.4
mtllib DoorTypeA.mtl

o cuboid
v 1 3 0.125
v 1 3 -0.125
v 1 -1 0.125
v 1 -1 -0.125
v -1 3 0.125
v -1 3 -0.125
v -1 -1 0.125
v -1 -1 -0.125
v -1 1 -0.125
v -1 1 0.125
v 1 1 0.125
v 1 1 -0.125
v 0.75 2.75 -0.125
v 0.75 1.25 -0.125
v -0.75 1.25 -0.125
v -0.75 2.75 -0.125
v -0.75 2.75 0.125
v -0.75 1.25 0.125
v 0.75 1.25 0.125
v 0.75 2.75 0.125
v 0.78125 0.84375 0.3125
v 0.78125 0.84375 -0.3125
v 0.78125 0.65625 0.3125
v 0.78125 0.65625 -0.3125
v 0.59375 0.84375 0.3125
v 0.59375 0.84375 -0.3125
v 0.59375 0.65625 0.3125
v 0.59375 0.65625 -0.3125
v 0.75 0.8125 0.1875
v 0.75 0.6875 0.1875
v 0.625 0.6875 0.1875
v 0.625 0.8125 0.1875
v 0.75 0.8125 -0.1875
v 0.75 0.6875 -0.1875
v 0.625 0.6875 -0.1875
v 0.625 0.8125 -0.1875
v 0.78125 0.84375 -0.1875
v 0.78125 0.65625 -0.1875
v 0.59375 0.65625 -0.1875
v 0.59375 0.84375 -0.1875
v 0.78125 0.84375 0.1875
v 0.78125 0.65625 0.1875
v 0.59375 0.65625 0.1875
v 0.59375 0.84375 0.1875
vt 0.34375 0
vt 0.34375 0.25
vt 0.3125 0.25
vt 0.3125 0
vt 0.0625 0
vt 0.0625 0.25
vt 0.03125 0.25
vt 0.03125 0
vt 0.0625 0.5
vt 0.3125 0.5
vt 0.3125 0.53125
vt 0.0625 0.53125
vt 1 0
vt 1 0.03125
vt 0.75 0.03125
vt 0.75 0
vt 0.3125 0
vt 0.3125 0.25
vt 0.0625 0.25
vt 0.0625 0
vt 1 0.03125
vt 1 0.28125
vt 0.75 0.28125
vt 0.75 0.03125
vt 0.03125 0.5
vt 0.03125 0.25
vt 0.0625 0.25
vt 0.0625 0.5
vt 0.3125 0.5
vt 0.3125 0.25
vt 0.34375 0.25
vt 0.34375 0.5
vt 0.78125 0.3125
vt 0.78125 0.5
vt 0.75 0.53125
vt 0.75 0.28125
vt 0.96875 0.3125
vt 0.78125 0.3125
vt 0.75 0.28125
vt 1 0.28125
vt 0.96875 0.5
vt 0.96875 0.3125
vt 1 0.28125
vt 1 0.53125
vt 0.78125 0.5
vt 0.96875 0.5
vt 1 0.53125
vt 0.75 0.53125
vt 0.09375 0.28125
vt 0.09375 0.46875
vt 0.0625 0.5
vt 0.0625 0.25
vt 0.28125 0.28125
vt 0.09375 0.28125
vt 0.0625 0.25
vt 0.3125 0.25
vt 0.28125 0.46875
vt 0.28125 0.28125
vt 0.3125 0.25
vt 0.3125 0.5
vt 0.09375 0.46875
vt 0.28125 0.46875
vt 0.3125 0.5
vt 0.0625 0.5
vt 0.28125 0.28125
vt 0.28125 0.3125
vt 0.09375 0.3125
vt 0.09375 0.28125
vt 0 0.4375
vt 0 0.25
vt 0.03125 0.25
vt 0.03125 0.4375
vt 0.28125 0.46875
vt 0.09375 0.46875
vt 0.09375 0.4375
vt 0.28125 0.4375
vt 0.34375 0.4375
vt 0.34375 0.25
vt 0.375 0.25
vt 0.375 0.4375
vt 0.5078125 0.2109375
vt 0.5234375 0.2109375
vt 0.5234375 0.234375
vt 0.5078125 0.234375
vt 0.640625 0.234375
vt 0.625 0.234375
vt 0.625 0.2109375
vt 0.640625 0.2109375
vt 0.578125 0.1328125
vt 0.578125 0.1484375
vt 0.5546875 0.1484375
vt 0.5546875 0.1328125
vt 0.5625 0.265625
vt 0.5625 0.25
vt 0.5859375 0.25
vt 0.5859375 0.265625
vt 0.5859375 0.2109375
vt 0.5859375 0.234375
vt 0.5625 0.234375
vt 0.5625 0.2109375
vt 0.6171875 0.265625
vt 0.59375 0.265625
vt 0.59375 0.2421875
vt 0.6171875 0.2421875
vt 0.5859375 0.1875
vt 0.6328125 0.1875
vt 0.6328125 0.203125
vt 0.5859375 0.203125
vt 0.5625 0.1953125
vt 0.5625 0.1484375
vt 0.578125 0.1484375
vt 0.578125 0.1953125
vt 0.5546875 0.2578125
vt 0.5078125 0.2578125
vt 0.5078125 0.2421875
vt 0.5546875 0.2421875
vt 0.5390625 0.1484375
vt 0.5390625 0.1953125
vt 0.5234375 0.1953125
vt 0.5234375 0.1484375
vt 0.6171875 0.21484375
vt 0.62109375 0.2109375
vt 0.62109375 0.234375
vt 0.6171875 0.23046875
vt 0.58203125 0.140625
vt 0.578125 0.13671875
vt 0.6015625 0.13671875
vt 0.59765625 0.140625
vt 0.52734375 0.23046875
vt 0.5234375 0.234375
vt 0.5234375 0.2109375
vt 0.52734375 0.21484375
vt 0.58203125 0.24609375
vt 0.5859375 0.25
vt 0.5625 0.25
vt 0.56640625 0.24609375
vt 0.65625 0.234375
vt 0.640625 0.234375
vt 0.640625 0.2109375
vt 0.65625 0.2109375
vt 0.578125 0.1171875
vt 0.578125 0.1328125
vt 0.5546875 0.1328125
vt 0.5546875 0.1171875
vt 0.4921875 0.2109375
vt 0.5078125 0.2109375
vt 0.5078125 0.234375
vt 0.4921875 0.234375
vt 0.5625 0.28125
vt 0.5625 0.265625
vt 0.5859375 0.265625
vt 0.5859375 0.28125
vt 0.54296875 0.23046875
vt 0.5390625 0.234375
vt 0.5390625 0.2109375
vt 0.54296875 0.21484375
vt 0.55859375 0.203125
vt 0.5546875 0.19921875
vt 0.578125 0.19921875
vt 0.57421875 0.203125
vt 0.6015625 0.21484375
vt 0.60546875 0.2109375
vt 0.60546875 0.234375
vt 0.6015625 0.23046875
vt 0.60546875 0.16796875
vt 0.609375 0.171875
vt 0.5859375 0.171875
vt 0.58984375 0.16796875
vn 1 0 0
vn -1 0 0
vn 0 1 0
vn 0 -1 0
vn 0 0 1
vn 0 0 -1
vn -1 0 0
vn 1 0 0
vn 0 0 -1
vn 0 0 -1
vn 0 0 -1
vn 0 0 -1
vn 0 0 1
vn 0 0 1
vn 0 0 1
vn 0 0 1
vn 0 1 0
vn 1 0 0
vn 0 -1 0
vn -1 0 0
vn 1 0 0
vn -1 0 0
vn 0 1 0
vn 0 -1 0
vn 0 0 1
vn 0 0 -1
vn 1 0 0
vn 0 -1 0
vn -1 0 0
vn 0 1 0
vn 0 0 1
vn 0 0 1
vn 0 0 1
vn 0 0 1
vn 1 0 0
vn 0 -1 0
vn -1 0 0
vn 0 1 0
vn 0 0 -1
vn 0 0 -1
vn 0 0 -1
vn 0 0 -1
usemtl none
f 4/1/1 12/2/1 11/3/1 3/4/1
f 7/5/2 10/6/2 9/7/2 8/8/2
f 5/9/3 1/10/3 2/11/3 6/12/3
f 4/13/4 3/14/4 7/15/4 8/16/4
f 3/17/5 11/18/5 10/19/5 7/20/5
f 8/21/6 9/22/6 12/23/6 4/24/6
f 6/25/7 9/26/7 10/27/7 5/28/7
f 1/29/8 11/30/8 12/31/8 2/32/8
f 14/33/9 13/34/9 2/35/9 12/36/9
f 15/37/10 14/38/10 12/39/10 9/40/10
f 16/41/11 15/42/11 9/43/11 6/44/11
f 13/45/12 16/46/12 6/47/12 2/48/12
f 18/49/13 17/50/13 5/51/13 10/52/13
f 19/53/14 18/54/14 10/55/14 11/56/14
f 20/57/15 19/58/15 11/59/15 1/60/15
f 17/61/16 20/62/16 1/63/16 5/64/16
f 19/65/17 14/66/17 15/67/17 18/68/17
f 17/69/18 18/70/18 15/71/18 16/72/18
f 20/73/19 17/74/19 16/75/19 13/76/19
f 13/77/20 14/78/20 19/79/20 20/80/20
f 23/81/21 42/82/21 41/83/21 21/84/21
f 25/85/22 44/86/22 43/87/22 27/88/22
f 21/89/23 41/90/23 44/91/23 25/92/23
f 27/93/24 43/94/24 42/95/24 23/96/24
f 23/97/25 21/98/25 25/99/25 27/100/25
f 26/101/26 22/102/26 24/103/26 28/104/26
f 30/105/27 34/106/27 33/107/27 29/108/27
f 31/109/28 35/110/28 34/111/28 30/112/28
f 32/113/29 36/114/29 35/115/29 31/116/29
f 29/117/30 33/118/30 36/119/30 32/120/30
f 34/121/31 38/122/31 37/123/31 33/124/31
f 35/125/32 39/126/32 38/127/32 34/128/32
f 36/129/33 40/130/33 39/131/33 35/132/33
f 33/133/34 37/134/34 40/135/34 36/136/34
f 22/137/35 37/138/35 38/139/35 24/140/35
f 24/141/36 38/142/36 39/143/36 28/144/36
f 28/145/37 39/146/37 40/147/37 26/148/37
f 26/149/38 40/150/38 37/151/38 22/152/38
f 29/153/39 41/154/39 42/155/39 30/156/39
f 30/157/40 42/158/40 43/159/40 31/160/40
f 31/161/41 43/162/41 44/163/41 32/164/41
f 32/165/42 44/166/42 41/167/42 29/168/42