# Made in Blockbench 4.10.4
mtllib Grass.mtl

o cuboid
v 1 -0.875 1
v 1 -0.875 -1
v 1 -1 1
v 1 -1 -1
v -1 -0.875 1
v -1 -0.875 -1
v -1 -1 1
v -1 -1 -1
vt 0.23437499999999997 0.75
vt 0.234375 0.5
vt 0.25 0.5
vt 0.25 0.75
vt 0.515625 0.75
vt 0.5 0.75
vt 0.5 0.5
vt 0.515625 0.5
vt 0.25 0.5
vt 0.5 0.5
vt 0.5 0.75
vt 0.25 0.75
vt 0.5 0.484375
vt 0.5 0.5
vt 0.25 0.5
vt 0.25 0.484375
vt 0.5 0.765625
vt 0.25 0.765625
vt 0.25 0.75
vt 0.5 0.75
vn 1 0 0
vn -1 0 0
vn 0 1 0
vn 0 0 1
vn 0 0 -1
usemtl none
f 2/1/1 1/2/1 3/3/1 4/4/1
f 7/5/2 5/6/2 6/7/2 8/8/2
f 5/9/3 1/10/3 2/11/3 6/12/3
f 3/13/4 1/14/4 5/15/4 7/16/4
f 6/17/5 2/18/5 4/19/5 8/20/5