# Made in Blockbench 4.10.4
mtllib RoofConnectedB.mtl

o cuboid
v 1.0000000000000002 -1.0000000000000036 -0.9999999999999962
v -1.0000000000000002 -0.9999999999999964 1.0000000000000033
v -0.9999999999999998 0.9999999999999964 -1.0000000000000038
v -0.9999999999999998 -1.0000000000000036 -0.9999999999999967
v -2.220446049250313e-16 -0.9999999999999964 1.0000000000000036
v 0.9999999999999998 -0.9999999999999964 1.0000000000000038
vt 0 0.7499999999999999
vt 1.1102230246251565e-16 0.5
vt 0.3515625 0.75
vt 1.1102230246251565e-16 0.5
vt 0.3515625 0.5000000000000001
vt 0 0.75
vt 0.5 0.25
vt 0.25 0.25
vt 0.25 0
vt 0.5 0
vn 0.7071067811865476 0.7071067811865476 -2.3502742518238025e-15
vn -1.5700924586837737e-16 0.7071067811865501 0.707106781186545
vn -1.956877033859951e-31 -1 3.5458343271505313e-15
usemtl none
f 1/1/1 3/2/1 6/3/1
f 2/4/2 6/5/2 3/6/2
f 1/7/3 6/8/3 2/9/3 4/10/3