# Made in Blockbench 4.10.4
mtllib Roof.mtl

o cuboid
v -1.0000000000000002 1 -0.9999999999999999
v -0.9999999999999999 1 1.0000000000000002
v -1.0000000000000002 -1 -0.9999999999999999
v -0.9999999999999999 -1 1.0000000000000002
v 0.9999999999999999 -1 -1.0000000000000002
v 1.0000000000000002 -1 0.9999999999999999
vt 0.25 0.75
vt 0.5 0.75
vt 0.5 1
vt 0.25 1
vt 0.1484375 0.5000000000000002
vt 0.5 0.5000000000000002
vt 0.5 0.75
vt 0.1484375 0.75
vt 0.5 0
vt 0.5 0.25
vt 0.25 0.25
vt 0.25 0
vt 0.5 0.24739583333333337
vt 0.2499999999999999 0.49739583333333326
vt 0.24999999999999994 0.24739583333333326
vt 0.5 0.75
vt 0.5 0.5
vt 0.75 0.5
vn -1 0 1.2246467991473532e-16
vn 0.7071067811865476 0.7071067811865476 -8.659560562354934e-17
vn 0 -1 0
vn -1.2246467991473532e-16 0 -1
vn 1.2246467991473532e-16 0 1
usemtl none
f 2/1/1 1/2/1 3/3/1 4/4/1
f 5/5/2 1/6/2 2/7/2 6/8/2
f 4/9/3 3/10/3 5/11/3 6/12/3
f 1/13/4 5/14/4 3/15/4
f 2/16/5 4/17/5 6/18/5