# Made in Blockbench 4.10.4
mtllib Stairs.mtl

o cuboid
v -1.00170454545454 0.9999999999999948 0.9982954545454503
v 0.9982954545454512 -0.4999999999999986 0.9982954545454512
v -1.001704545454541 0.9999999999999948 -1.0017045454545406
v 0.9982954545454508 -0.4999999999999986 -1.0017045454545415
v 0.4982954545454534 -0.4999999999999986 0.9982954545454517
v 0.49829545454545293 -0.4999999999999986 -1.001704545454542
v 0.4982954545454534 -4.163336342344337e-16 0.9982954545454517
v 0.49829545454545293 -4.163336342344337e-16 -1.001704545454542
v -0.0017045454545443154 -4.163336342344337e-16 -1.001704545454542
v -0.0017045454545450995 -4.163336342344337e-16 0.9982954545454499
v -0.0017045454545443154 0.4999999999999999 -1.001704545454542
v -0.0017045454545450995 0.4999999999999999 0.9982954545454499
v -0.5017045454545438 0.9999999999999948 -1.001704545454542
v -0.5017045454545433 0.9999999999999948 0.9982954545454517
v -0.5017045454545438 0.4999999999999999 -1.001704545454542
v -0.5017045454545433 0.4999999999999999 0.9982954545454517
v -1.00170454545454 -0.9999999999999964 0.9982954545454503
v 0.49829545454545293 -0.9999999999999964 -1.001704545454542
v 0.4982954545454534 -0.9999999999999964 0.9982954545454517
v -1.001704545454541 -0.9999999999999964 -1.0017045454545406
v 0.9982954545454512 -0.9999999999999964 0.9982954545454512
v 0.9982954545454508 -0.9999999999999964 -1.0017045454545415
vt 0.4375 0.75
vt 0.4375 0.875
vt 0.375 0.875
vt 0 0.6875
vt 0.12499999999999999 0.625
vt 0.12499999999999999 0.6875
vt 0.1875 0.5
vt 0.25 0.5
vt 0.25 0.75
vt 0.1875 0.75
vt 0.5 0.25
vt 0.5 0.5
vt 0.25 0.5
vt 0.25 0.25
vt 0.0625 0.5
vt 0.0625 0.75
vt 0 0.75
vt 0 0.5
vt 0.49999999999999994 0.8125
vt 0.4375 0.8125
vt 0.4375 0.75
vt 0.49999999999999994 0.75
vt 0 0.75
vt 1.3877787807814457e-17 0.6875
vt 0.06250000000000001 0.6875
vt 0.06250000000000001 0.75
vt 0.06250000000000003 0.5
vt 0.125 0.5
vt 0.125 0.75
vt 0.06249999999999997 0.75
vt 0.1875 0.75
vt 0.125 0.75
vt 0.125 0.5
vt 0.1875 0.5
vt 0.25 0.75
vt 0.375 0.875
vt 0.375 0.9375
vt 0.3125 0.75
vt 0.25 0.75
vt 0.25 0.5
vt 0.3125 0.5
vt 0 0.5
vt 0.1875 0.5625
vt 0.1875 0.625
vt 0.375 0.9375
vt 0.3125 0.9375
vt 0.25 0.75
vt 0.3125 0.5
vt 0.375 0.5
vt 0.375 0.75
vt 0.3125 0.75
vt 0.5 0.75
vt 0.4375 0.75
vt 0.4375 0.5
vt 0.5 0.5
vt 0.375 0.5
vt 0.4375 0.5
vt 0.4375 0.75
vt 0.375 0.75
vt 0.25 0.75
vt 0.3125 0.9375
vt 0.25 1
vt 0.3125 0.9375
vt 0.3125 1
vt 0.25 1
vt 0.25 0.5625
vt 0.1875 0.5625
vt 0.25 0.5
vt 0 0.5
vt 0.25 0.5
vt 0.1875 0.5625
vt 0 0.5
vt 0.1875 0.625
vt 0.12499999999999999 0.625
vt 1.3877787807814457e-17 0.6875
vt 1.3877787807814457e-17 0.5
vt 0.125 0.625
vt 0.375 0.875
vt 0.25 0.75
vt 0.4375 0.75
vt 0.25 0.0625
vt 0.5 0.0625
vt 0.5 0.25
vt 0.25 0.25
vt 0.5 0
vt 0.5 0.0625
vt 0.25 0.0625
vt 0.25 0
vn -3.552713678800512e-15 0 1
vn 0 0 -1
vn 0 1 0
vn -1 0 5.551115123125808e-16
vn 1 0 -2.2204460492503215e-16
vn 8.881784197001292e-16 0 1
vn 8.881784197001292e-16 0 -1
vn 0 1 0
vn 1 0 -2.2204460492503205e-16
vn 4.440892098500649e-16 0 1
vn 1 0 3.9204750557076e-16
vn 0 -8.881784197001274e-16 -1
vn 3.5527136788005136e-15 -2.0724163126336265e-15 1
vn 0 1 0
vn 0 1 0
vn 1 0 -2.2204460492503205e-16
vn -2.6645352591003942e-15 0 1
vn -2.6645352591003942e-15 0 1
vn -2.6645352591003907e-15 0 -1
vn -2.6645352591003907e-15 0 -1
vn -1.332267629550192e-15 0 -1
vn -8.881784197001288e-16 -4.440892098500637e-16 -1
vn -8.881784197001292e-16 1.3322676295501926e-15 1
vn 0 -1 0
vn 0 -1 0
usemtl none
f 19/1/1 7/2/1 10/3/1
f 18/4/2 9/5/2 8/6/2
f 8/7/3 9/8/3 10/9/3 7/10/3
f 17/11/4 1/12/4 3/13/4 20/14/4
f 4/15/5 2/16/5 21/17/5 22/18/5
f 2/19/6 5/20/6 19/21/6 21/22/6
f 22/23/7 18/24/7 6/25/7 4/26/7
f 4/27/8 6/28/8 5/29/8 2/30/8
f 6/31/9 8/32/9 7/33/9 5/34/9
f 17/35/10 10/36/10 12/37/10
f 9/38/11 11/39/11 12/40/11 10/41/11
f 20/42/12 15/43/12 11/44/12
f 12/45/13 16/46/13 17/47/13
f 11/48/14 15/49/14 16/50/14 12/51/14
f 1/52/15 14/53/15 13/54/15 3/55/15
f 14/56/16 16/57/16 15/58/16 13/59/16
f 17/60/17 16/61/17 1/62/17
f 16/63/18 14/64/18 1/65/18
f 13/66/19 15/67/19 3/68/19
f 20/69/20 3/70/20 15/71/20
f 20/72/21 11/73/21 9/74/21
f 18/75/22 20/76/22 9/77/22
f 10/78/23 17/79/23 19/80/23
f 18/81/24 19/82/24 17/83/24 20/84/24
f 21/85/25 19/86/25 18/87/25 22/88/25