# Made in Blockbench 4.10.4
mtllib StairsConnectedB.mtl

o cuboid
v -0.9982954545454505 0.9999999999999948 -1.0017045454545397
v 1.0017045454545417 -0.5000000000000052 -1.0017045454545441
v -0.9982954545454518 0.9999999999999948 -0.5017045454545431
v -0.9982954545454518 0.4999999999999999 -0.5017045454545431
v 0.001704545454544903 0.4999999999999948 -1.0017045454545435
v 0.0017045454545460133 0.4999999999999999 -0.0017045454545447079
v 0.5017045454545432 -5.218048215738236e-15 -1.001704545454544
v -0.9982954545454565 -0.9999999999999964 0.9982954545454511
v -0.4982954545454534 0.9999999999999948 -0.5017045454545433
v -0.4982954545454528 0.9999999999999948 -1.0017045454545401
v -0.9982954545454534 -0.9999999999999964 -1.0017045454545466
v 0.5017045454545425 -0.5000000000000052 -1.001704545454544
v 1.0017045454545428 -0.9999999999999964 0.9982954545454528
v 0.0017045454545440704 -5.218048215738236e-15 -1.0017045454545437
v 1.0017045454545443 -0.4999999999999986 0.9982954545454508
v 0.5017045454545445 -0.4999999999999986 0.498295454545453
v 0.5017045454545445 -4.163336342344337e-16 0.498295454545453
v 0.0017045454545449585 -1.1102230246251565e-16 -0.0017045454545446099
v -0.4982954545454542 0.4999999999999948 -0.5017045454545433
v -0.498295454545454 0.4999999999999948 -1.0017045454545404
v -0.9982954545454538 -0.4999999999999986 0.9982954545454512
v -0.998295454545454 -0.4999999999999986 0.49829545454545343
v -0.998295454545454 -4.163336342344337e-16 0.49829545454545343
v -0.998295454545453 -4.163336342344337e-16 -0.0017045454545445838
v -0.998295454545453 0.4999999999999999 -0.0017045454545445838
v 0.0017045454545437373 -5.218048215738236e-15 -1.0017045454545406
v 1.0017045454545415 -0.9999999999999964 -1.001704545454541
vt 0.24999999999999978 0.7499999999999998
vt 0.24999999999999978 0.6874999999999998
vt 0.4374999999999998 0.6874999999999998
vt 0.4999999999999998 0.7499999999999998
vt 0.25 0.5625
vt 0.3125 0.5625
vt 0.25 0.625
vt 0.4374999999999998 0.6875000000000002
vt 0.4374999999999998 0.5000000000000002
vt 0.4999999999999998 0.5000000000000002
vt 0.4999999999999998 0.7500000000000002
vt 0.18750000000000022 0.625
vt 2.220446049250313e-16 0.625
vt 2.220446049250313e-16 0.5625
vt 0.18750000000000022 0.5625
vt 0.3749999999999998 0.6250000000000002
vt 0.3749999999999998 0.5000000000000002
vt 0.4374999999999998 0.5000000000000002
vt 0.4374999999999998 0.6875000000000002
vt 0.12500000000000022 0.6875
vt 2.220446049250313e-16 0.6875
vt 2.220446049250313e-16 0.625
vt 0.12500000000000022 0.625
vt 0.25 0.625
vt 0.3124999530492988 0.5625000469507013
vt 0.37499990609859757 0.625
vt 0.3124999999999998 0.5000000000000002
vt 0.3124999999999998 0.5625000000000002
vt 0.24999999999999978 0.5625000000000002
vt 0.24999999999999978 0.5000000000000002
vt 0.3750000000000002 0.4999999999999998
vt 0.3125000000000002 0.5624999999999998
vt 0.3125000000000002 0.4999999999999998
vt 2.220446049250313e-16 0.6875
vt 0.06250000000000022 0.6875
vt 0.06250000000000022 0.75
vt 2.220446049250313e-16 0.75
vt 0.5625 0.625
vt 0.5625 0.5625
vt 0.75 0.5625
vt 0.75 0.625
vt 0.625 0.6875
vt 0.625 0.625
vt 0.75 0.625
vt 0.75 0.6875
vt 0.6875 0.75
vt 0.6875 0.6875
vt 0.75 0.6875
vt 0.75 0.75
vt 0.3125 0.5625
vt 0.375 0.5
vt 0.375 0.625
vt 0.5 0.25
vt 0.25 0.25
vt 0.25 0
vt 0.5 0
vt 0.5 0.5625
vt 0.5 0.5
vt 0.75 0.5
vt 0.75 0.5625
vt 0 0.5
vt 0.25 0.5
vt 0.25 0.5625
vt 0 0.5625
vt 0.37500015106461054 0.6250002298567217
vt 0.4374997581634069 0.6874999327950468
vt 0.2499996924179818 0.6874998848752825
vt 0.2499997403377463 0.6250002298567217
vn -2.9335764912906468e-30 1 -4.4038846643464635e-15
vn 0 1 0
vn 0 1 0
vn 2.9605947323337516e-16 0 1
vn -3.053113317719186e-16 1 -5.238529448733316e-31
vn 1.240327285323416e-16 0 1
vn -5.10702591327573e-15 1 -5.107025913275721e-15
vn 0 1 0
vn 1.0214051826551489e-14 1 2.49477261276147e-29
vn 4.440892098500637e-16 -3.697785493223511e-31 1
vn 1 0 -1.3322676295501902e-15
vn 1 -2.109423746787798e-15 -8.88178419700115e-16
vn 1 -1.665334536937735e-15 4.440892098500668e-16
vn -1.4791141972894003e-30 1 -1.0214051826551467e-14
vn 0 -1 0
vn 1 -3.1086244689504537e-15 -6.661338147750953e-16
vn -8.326672684688678e-16 3.996802888650584e-15 1
vn 3.811765717879702e-15 1 -3.2011430543358774e-15
usemtl none
f 2/1/1 12/2/1 16/3/1 15/4/1
f 20/5/2 19/6/2 5/7/2
f 16/8/3 22/9/3 21/10/3 15/11/3
f 17/12/4 23/13/4 22/14/4 16/15/4
f 18/16/5 24/17/5 23/18/5 17/19/5
f 6/20/6 25/21/6 24/22/6 18/23/6
f 5/24/7 19/25/7 6/26/7
f 3/27/8 9/28/8 10/29/8 1/30/8
f 25/31/9 19/32/9 4/33/9
f 4/34/10 19/35/10 9/36/10 3/37/10
f 17/38/11 16/39/11 12/40/11 7/41/11
f 6/42/12 18/43/12 14/44/12 5/45/12
f 9/46/13 19/47/13 20/48/13 10/49/13
f 19/50/14 25/51/14 6/52/14
f 8/53/15 11/54/15 27/55/15 13/56/15
f 15/57/16 13/58/16 27/59/16 2/60/16
f 8/61/17 13/62/17 15/63/17 21/64/17
f 18/65/18 17/66/18 7/67/18 14/68/18